<svg viewBox="0 0 997 997" xmlns="http://www.w3.org/2000/svg" xml:space="preserve" fill-rule="evenodd" clip-rule="evenodd" stroke-linejoin="round" stroke-miterlimit="2">
  <path d="M463.579 676.05c-3.165-4.216-6.892-8.002-9.916-12.312-10.693-15.241-14.778-33.081-12.079-51.523 2.567-17.543 13.398-35.605 27.649-46.124.983-.721 1.983-1.417 3-2.088s2.05-1.317 3.099-1.938c1.049-.62 2.113-1.214 3.191-1.782 1.078-.568 2.17-1.108 3.275-1.622 1.106-.514 2.223-1 3.352-1.458 1.129-.459 2.269-.889 3.419-1.292 1.151-.402 2.31-.776 3.48-1.121 1.168-.344 2.345-.66 3.53-.947 1.184-.287 2.375-.545 3.572-.772 1.197-.228 2.4-.426 3.607-.594 1.207-.169 2.417-.308 3.631-.417 1.214-.109 2.43-.187 3.648-.236 1.217-.049 2.435-.067 3.654-.055 1.219.011 2.437.053 3.653.124 1.217.072 2.431.173 3.642.305 1.212.132 2.419.293 3.623.485 18.937 3.025 35.054 13.495 46.181 29.028.679.958 1.334 1.932 1.965 2.923.632.99 1.238 1.995 1.82 3.015.582 1.02 1.138 2.053 1.669 3.1.531 1.048 1.036 2.107 1.515 3.179.479 1.072.931 2.155 1.357 3.25.426 1.094.824 2.198 1.196 3.312.372 1.114.716 2.236 1.032 3.367.316 1.131.605 2.268.865 3.414.261 1.145.493 2.296.697 3.452.204 1.156.379 2.317.526 3.481.147 1.166.265 2.334.355 3.504.089 1.171.15 2.343.182 3.517s.035 2.348.009 3.522c-.026 1.174-.08 2.347-.163 3.518-.084 1.171-.196 2.34-.336 3.506-.141 1.165-.311 2.326-.509 3.484-1.856 10.95-6.033 20.997-12.788 29.856-2.872 3.768-6.387 7.339-8.657 11.503-.347 25.285 3.985 47.075-16.094 66.492-9.407 9.097-22.191 13.468-35.181 13.13-4.741-.122-9.371-1.809-13.983-2.807-4.485-2.147-8.842-4.531-13.069-7.15-11.86-10.837-18.648-21.548-19.327-37.996-.443-10.741.458-21.488-.292-32.233Zm60.958-86.025 3.358 1.281 3.212 1.828c7.254 4.458 12.77 10.313 15.397 18.872 2.815 9.173 2.732 18.346-1.838 26.924-5.269 9.894-17.337 14.891-19.059 26.456-1.81 12.151 2.273 36.598-1.419 46.625-1.356 3.684-3.439 5.934-6.722 7.988-4.759.201-9.247.712-13.123-2.667-3.455-3.011-4.399-7.476-4.556-11.865-.403-11.333 1.831-37.399-1.986-46.788-6.326-8.294-13.526-9.471-18.058-20.736-3.857-9.59-4.317-19.482-.197-29.077 3.753-8.744 11.233-15.275 20.039-18.716 7.869-3.075 16.949-2.782 24.952-.125Z" fill="#07274c"/>
  <path d="M536.015 381.943c-6.879 3.995-14.012 6.826-22.041 7.057-10.435.301-22.612-3.528-30.128-11.029-2.107-2.103-3.664-4.868-3.602-7.911.005-.312.026-.623.064-.932.038-.31.093-.617.165-.92.07-.304.157-.603.26-.898.103-.294.221-.582.355-.863.134-.282.282-.556.445-.821.163-.267.34-.523.53-.77s.393-.483.61-.708c.215-.225.442-.438.68-.639 6.492-5.57 12.75 1.506 18.405 4.579.739.399 1.495.761 2.27 1.085.775.324 1.565.609 2.368.853.804.245 1.618.448 2.442.61.824.162 1.655.283 2.491.361 13.245 1.19 18.328-10.628 26.546-9.759 2.215.233 4.01 1.462 5.264 3.269 1.962 2.823 1.592 5.341.935 8.538-2.165 3.705-4.785 6.199-8.059 8.898Zm-79.008-100.379c10.314-.533 23.302 2.538 31.282 9.426 2.989 2.579 5.52 6.295 5.592 10.377.031 1.83-.61 3.51-2 4.732-3.056 2.687-6.062 2.7-9.859 2.608-5.146-4.177-9.465-7.264-15.941-9.043-13.974-3.371-17.373 6.452-26.802 8.949-1.761.467-3.965.335-5.787.365-2.09-2.015-3.884-4.364-4.517-7.256-.555-2.539.052-5.003 1.477-7.147 5.271-7.923 17.784-11.471 26.555-13.011Zm101.729-.02c5.076-.444 9.988.073 14.93 1.242 6.882 1.628 17.532 5.898 21.219 12.289 1.236 2.142 1.422 4.453.759 6.815-.689 2.456-1.99 5.254-4.384 6.458-6.212 3.125-14.989-6.567-20.907-8.475-.204-.065-.41-.128-.615-.191-9.371-1.387-14.753.717-22.554 5.54-2.042 1.262-4.104 2.647-6.419 3.354-1.621.495-2.865.331-4.329-.544-2.264-1.352-3.955-3.653-4.486-6.243-.551-2.692.087-5.265 1.586-7.538 5.334-8.086 16.336-10.9 25.2-12.707Z" fill="#07274c" fill-rule="nonzero"/>
  <path d="M576.349 317.141c5.22-.232 10.513.363 15.218 2.781 5.674 2.917 9.715 8.028 11.554 14.105 1.829 6.043 1.513 12.659-1.672 18.197-3.596 6.252-9.11 9.571-15.857 11.448-5.73 1.142-11.337.461-16.452-2.462-5.701-3.256-9.866-9.023-11.347-15.406-1.569-6.76.061-13.979 3.917-19.694 3.585-5.313 8.517-7.725 14.639-8.969Zm-109.806 15.006c.503 1.597.911 3.254 1.133 4.914.896 6.698-.827 13.258-5.113 18.531-.242.303-.491.599-.747.889-.257.29-.521.573-.793.849-.271.275-.55.544-.835.805-.285.262-.578.515-.877.761-.299.246-.604.484-.915.714-.311.231-.628.453-.951.666-.323.213-.652.418-.985.615-.334.196-.673.383-1.016.562-.343.178-.691.348-1.043.509-.353.16-.709.311-1.069.453-.361.141-.724.274-1.091.396-.367.124-.737.237-1.11.34-.373.103-.749.197-1.127.281-.378.083-.758.157-1.139.221-.382.064-.765.118-1.149.161-.385.044-.771.078-1.157.102-6.61.462-13.136-1.351-18.086-5.861-.283-.255-.56-.517-.831-.786-.271-.269-.534-.545-.79-.828-.256-.283-.505-.572-.747-.867-.241-.296-.474-.597-.7-.905-.226-.308-.444-.621-.654-.94-.209-.319-.41-.642-.602-.972-.194-.329-.378-.663-.553-1.002-.176-.339-.343-.682-.501-1.029-.158-.347-.307-.699-.447-1.054-.14-.355-.27-.713-.392-1.075-.121-.362-.233-.726-.335-1.094-.103-.367-.196-.737-.279-1.11-.083-.372-.157-.746-.221-1.123-.064-.375-.119-.753-.164-1.132-.044-.379-.079-.758-.104-1.14-.025-.38-.04-.761-.046-1.143-.125-6.826 2.175-14.46 7.146-19.276 4.511-4.369 10.682-5.833 16.798-5.71 7.123.144 12.319 2.732 17.188 7.738 1.583 2.464 2.997 4.919 4.304 7.54Z" fill="#ee6d5e" fill-rule="nonzero"/>
  <path d="m526.374694 591.174074 1.520166.131469c-.984553-.053561-2.055778-.186978-3.03254-.170422l1.512374.038953Z" fill="#fefefe"/>
  <path d="M478.746918 457.945674c-5.618089 2.744284-11.623766 5.2938-17.203875 8.18416-4.089159 2.160953-8.071195 4.502067-11.948056 7.024315-1.41986.936835-2.851406 2.263206-4.324827 3.059808l-4.138825 3.096815c-17.337291 13.219891-39.16399 31.04605-50.455676 49.894743-.757648.934888-1.543538 1.855167-2.250546 2.828035-4.984119 6.834416-16.042083 25.520477-17.22043 27.844061-15.467517 32.621726-24.670315 67.269041-23.977914 103.529037-.036032 3.500959-.242486 7.095406.40804 10.548646.967998 21.230708 6.690287 46.010092 14.199575 65.844311 2.816348 7.438198 7.014577 14.82186 9.384906 22.332122 1.659425 3.702544 3.840829 7.19766 5.967698 10.648952.9232 2.232043 1.689614 4.207967 1.993452 6.622118l-.980658-.886195c-.298969-2.465765-1.07512-4.468956-2.01293-6.736058-2.126868-3.451293-4.308272-6.946408-5.967697-10.648951-2.370329-7.510262-6.568557-14.893925-9.384906-22.332122-7.509287-19.83422-13.231577-44.613604-14.199575-65.844312-.650526-3.45324-.444072-7.047687-.40804-10.548646-.6924-36.259995 8.510397-70.90731 23.977914-103.529036 1.178347-2.323585 12.236312-21.009646 17.22043-27.844062.707009-.972867 1.492898-1.893147 2.250547-2.828034 11.291686-18.848693 33.118384-36.674852 50.455676-49.894744l4.138824-3.096814c1.473421-.796602 2.904968-2.122974 4.324828-3.059809 3.87686-2.522248 7.858897-4.863362 11.948055-7.024315 5.700865-2.952686 11.845802-4.549785 17.571987-7.357369l.632023.173344Z" fill="#c8c7c7"/>
  <path d="m379.18 779.403.02.114c-28.026-21.315-50.321-56.608-61.393-89.717-.523-1.604-1.026-3.214-1.509-4.83-.485-1.615-.949-3.236-1.394-4.863-.445-1.627-.87-3.259-1.275-4.896-.406-1.637-.791-3.279-1.157-4.925-.365-1.647-.711-3.297-1.037-4.952-.326-1.655-.632-3.313-.917-4.975-.286-1.663-.552-3.329-.798-4.997-.246-1.669-.471-3.34-.677-5.015-.205-1.673-.39-3.35-.555-5.028-.165-1.679-.309-3.359-.433-5.041-.125-1.682-.229-3.365-.313-5.049-.083-1.685-.147-3.371-.19-5.057-.042-1.686-.065-3.372-.068-5.059-.002-1.686.017-3.373.055-5.059s.097-3.371.176-5.056c.079-1.685.179-3.368.298-5.05.12-1.683.26-3.364.421-5.043.16-1.679.34-3.355.541-5.03.201-1.674.422-3.346.662-5.016.242-1.669.503-3.335.784-4.998.282-1.663.583-3.323.904-4.978.322-1.656.664-3.307 1.025-4.955.361-1.647.742-3.29 1.143-4.929.4-1.638.821-3.271 1.262-4.899.44-1.628.9-3.251 1.379-4.867.48-1.617.979-3.229 1.497-4.833.519-1.605 1.056-3.204 1.613-4.796.557-1.592 1.133-3.177 1.728-4.755.595-1.578 1.21-3.149 1.843-4.712.633-1.564 1.285-3.119 1.956-4.666.671-1.548 1.36-3.087 2.067-4.618.708-1.531 1.434-3.053 2.179-4.566 1.053-2.098 2.141-4.177 3.265-6.239 1.124-2.06 2.283-4.101 3.476-6.122 1.194-2.021 2.422-4.022 3.684-6.001 1.261-1.979 2.557-3.936 3.886-5.871 1.328-1.935 2.69-3.847 4.084-5.735 1.394-1.888 2.82-3.752 4.278-5.592 1.457-1.84 2.946-3.654 4.466-5.443 1.52-1.789 3.07-3.551 4.65-5.287 1.58-1.736 3.189-3.444 4.827-5.125 1.638-1.682 3.305-3.334 5-4.958 1.695-1.624 3.417-3.218 5.166-4.783 1.749-1.566 3.525-3.101 5.326-4.605 1.802-1.505 3.629-2.978 5.481-4.42 1.852-1.442 3.728-2.852 5.629-4.23 1.9-1.379 3.823-2.724 5.769-4.036 1.946-1.312 3.914-2.591 5.904-3.836 7.679-4.857 15.303-10.777 24.002-13.652 18.805 10.477 30.043 16.138 51.205 21.42l-.368.173-.632-.173c-5.726 2.808-11.871 4.405-17.572 7.358-4.089 2.16-8.071 4.502-11.948 7.024-1.42.937-2.851 2.263-4.325 3.06l-4.139 3.097c-17.337 13.22-39.164 31.046-50.455 49.895-.758.934-1.544 1.855-2.251 2.828-4.984 6.834-16.042 25.52-17.22 27.844-15.468 32.621-24.671 67.269-23.978 103.529-.036 3.501-.243 7.095.408 10.548.968 21.231 6.69 46.01 14.199 65.845 2.817 7.438 7.015 14.821 9.385 22.332 1.66 3.702 3.841 7.197 5.968 10.649.938 2.267 1.714 4.27 2.013 6.736l.98.886Zm118.473-120.917c-6.29-8.12-13.414-9.366-17.91-20.543-3.857-9.59-4.317-19.482-.197-29.077 3.753-8.744 11.233-15.275 20.039-18.716 7.869-3.075 16.949-2.782 24.952-.125l1.403.535c.741.244 1.405.494 1.955.746-.492-.027-1.007-.087-1.52-.132l-1.513-.039-2.545.279c-5.542.839-8.502 2.983-13.03 5.977-6.829 4.514-11.047 11.772-13.527 19.364-1.98 6.062-2.407 13.553-1.132 19.834 1.335 6.581 2.324 8.153 2.831 14.2l.342 7.89-.148-.193ZM328.017 347.992c-7.067 5.293-13.353 10.249-20.204 15.829-.34-12.156-.155-24.36-.162-36.524-.01-16.89-.379-33.584 2.358-50.327.238-1.466.493-2.93.763-4.392.27-1.462.556-2.92.857-4.375.302-1.456.619-2.908.951-4.356.333-1.449.681-2.893 1.044-4.334.364-1.441.743-2.878 1.138-4.311.395-1.433.804-2.862 1.229-4.286.425-1.424.866-2.843 1.321-4.258.456-1.414.927-2.824 1.412-4.228.487-1.405.988-2.804 1.503-4.198.516-1.394 1.047-2.782 1.592-4.164.546-1.383 1.107-2.759 1.682-4.13.575-1.369 1.165-2.733 1.77-4.092.604-1.357 1.223-2.708 1.857-4.053.633-1.344 1.281-2.681 1.943-4.012.663-1.33 1.339-2.653 2.03-3.969.69-1.316 1.394-2.625 2.113-3.926.72-1.301 1.452-2.594 2.198-3.879.747-1.285 1.507-2.562 2.281-3.831.774-1.268 1.561-2.529 2.362-3.78.801-1.253 1.615-2.496 2.443-3.73.828-1.234 1.668-2.46 2.522-3.676.854-1.217 1.721-2.424 2.601-3.622.88-1.197 1.773-2.385 2.678-3.564.905-1.179 1.823-2.347 2.753-3.506.931-1.159 1.873-2.308 2.828-3.447.956-1.138 1.923-2.267 2.902-3.385.979-1.118 1.97-2.225 2.974-3.321 1.003-1.097 2.017-2.183 3.044-3.258 1.026-1.074 2.064-2.138 3.113-3.191s2.11-2.094 3.182-3.123c1.072-1.03 2.154-2.048 3.247-3.055 1.094-1.006 2.198-2.001 3.312-2.984 5.609-4.937 11.761-9.346 17.828-13.697 38.13-27.35 94.745-43.075 141.284-35.353l-.349.076-.651-.076c-2.57.364-6.528.841-8.855 1.255-7.377 1.309-22.077 4.826-22.804 4.985-30.875 6.749-39.203 12.807-63.024 26.356-27.869 15.85-44.953 29.756-64.683 54.927-3.579 4.566-7.273 8.814-10.514 13.663-1.443 2.172-2.848 4.369-4.216 6.589-1.368 2.221-2.698 4.464-3.99 6.729-1.292 2.265-2.545 4.551-3.76 6.859-1.215 2.308-2.391 4.636-3.526 6.983-1.136 2.348-2.233 4.714-3.289 7.098-1.056 2.385-2.072 4.787-3.046 7.206-.975 2.418-1.909 4.853-2.802 7.304-.892 2.45-1.743 4.914-2.552 7.394-.809 2.479-1.576 4.971-2.301 7.476-.726 2.505-1.408 5.022-2.047 7.55-.641 2.528-1.237 5.067-1.791 7.616-.554 2.548-1.065 5.105-1.533 7.671-.468 2.565-.891 5.138-1.272 7.718-.38 2.58-.717 5.166-1.01 7.757-.293 2.592-.543 5.188-.748 7.788-.205 2.599-.366 5.202-.484 7.807-.324 7.111-1.243 15.486.157 22.475.108.543.178.736.341 1.302Z" fill-opacity=".2"/>
  <path d="M503.986 68.454c1.857-.124 3.716-.206 5.576-.245 1.648-.027 3.296-.038 4.944-.031 1.649.007 3.297.03 4.945.071 1.647.041 3.294.099 4.941.174 1.646.075 3.292.167 4.936.276 1.645.109 3.288.235 4.93.378 1.642.143 3.282.303 4.921.48 1.638.177 3.275.371 4.91.582 1.635.211 3.267.438 4.896.683 1.631.245 3.258.506 4.882.785 1.625.278 3.246.573 4.865.885 1.618.312 3.233.641 4.844.986 1.612.346 3.22.708 4.824 1.086 1.604.379 3.204.774 4.8 1.186 1.596.412 3.187.84 4.775 1.285 1.586.445 3.169.906 4.746 1.384 1.578.477 3.15.971 4.717 1.481 1.568.51 3.129 1.037 4.686 1.579 1.556.542 3.107 1.101 4.652 1.676 1.544.574 3.083 1.165 4.616 1.771 1.532.606 3.058 1.229 4.578 1.867 1.519.638 3.033 1.291 4.539 1.961 1.506.669 3.005 1.354 4.497 2.054 1.492.701 2.976 1.417 4.453 2.148 1.478.731 2.947 1.477 4.409 2.239 1.461.761 2.915 1.538 4.361 2.329 1.446.792 2.883 1.599 4.312 2.42 1.429.822 2.849 1.658 4.26 2.509 1.412.85 2.815 1.716 4.208 2.596 1.394.88 2.778 1.774 4.153 2.682 1.376.909 2.741 1.832 4.097 2.769 1.356.937 2.702 1.887 4.038 2.852 1.337.965 2.663 1.943 3.979 2.935 7.105 5.337 14.318 10.962 20.683 17.167 40.81 39.787 68.002 90.768 74.67 147.692 2.523 21.548 1.949 43.716 1.827 65.39-.053 9.277-1.495 43.378.63 49.73 1.496 4.469 12.07 15.149 15.606 19.512 4.399 5.43 8.774 10.948 12.785 16.672 40.024 57.13 59.688 120.687 60.73 190.322.158 10.543-.858 21.055-1.823 31.54-7.013 76.269-40.098 145.982-93.409 200.926-1.869 1.901-3.761 3.779-5.675 5.635-1.914 1.855-3.85 3.687-5.808 5.496-1.959 1.809-3.939 3.594-5.941 5.355-2.001 1.761-4.023 3.498-6.066 5.211s-4.106 3.4-6.19 5.063c-2.084 1.663-4.187 3.301-6.311 4.913-2.123 1.612-4.265 3.199-6.426 4.759-2.162 1.561-4.341 3.096-6.54 4.605-2.198 1.508-4.414 2.989-6.648 4.444s-4.485 2.883-6.754 4.284c-2.267 1.4-4.552 2.774-6.854 4.119-2.301 1.346-4.618 2.664-6.951 3.954-2.333 1.29-4.681 2.552-7.045 3.786-2.363 1.234-4.741 2.439-7.133 3.614-2.392 1.177-4.799 2.324-7.219 3.443-2.42 1.119-4.853 2.208-7.299 3.267-2.446 1.06-4.905 2.091-7.376 3.091-2.471 1.001-4.953 1.972-7.448 2.913-2.494.941-5 1.852-7.516 2.733s-5.043 1.731-7.579 2.551c-2.538.819-5.084 1.608-7.639 2.367-2.556.759-5.121 1.487-7.693 2.184-2.574.696-5.155 1.362-7.744 1.997-2.59.635-5.186 1.239-7.79 1.811-2.604.572-5.214 1.113-7.831 1.623s-5.239.987-7.868 1.433c-2.628.447-5.261.862-7.899 1.245-2.639.383-5.281.734-7.928 1.054-2.647.319-5.297.607-7.951.862-2.653.256-5.31.48-7.969.671-2.659.192-5.32.352-7.982.48-2.663.127-5.328.223-7.993.287-10.92.592-22.011-.193-32.896-1.091-3.368-.276-6.73-.601-10.088-.977-3.358-.376-6.709-.801-10.055-1.275-3.345-.476-6.683-1-10.013-1.574-3.33-.574-6.65-1.197-9.961-1.87-3.311-.672-6.612-1.394-9.902-2.165-3.29-.77-6.568-1.589-9.833-2.457-3.266-.867-6.518-1.783-9.756-2.747-3.239-.964-6.462-1.976-9.67-3.035-3.209-1.06-6.401-2.167-9.576-3.322-3.176-1.154-6.333-2.356-9.473-3.603-3.14-1.248-6.261-2.542-9.362-3.883-3.102-1.341-6.183-2.727-9.243-4.159-3.06-1.432-6.099-2.909-9.116-4.431-3.016-1.523-6.01-3.089-8.98-4.7-2.97-1.611-5.916-3.265-8.837-4.964-2.92-1.698-5.816-3.439-8.685-5.223-8.202-5.117-15.625-11.162-23.286-17.026-1.907-1.442-3.797-2.904-5.672-4.387-1.875-1.484-3.734-2.987-5.576-4.511-1.842-1.524-3.667-3.068-5.476-4.632-1.808-1.563-3.599-3.146-5.373-4.749-1.774-1.603-3.53-3.225-5.268-4.866-1.738-1.642-3.459-3.301-5.161-4.98-1.702-1.678-3.385-3.376-5.05-5.091-1.665-1.716-3.311-3.45-4.938-5.201-1.627-1.752-3.235-3.521-4.823-5.308-1.589-1.786-3.158-3.59-4.707-5.41-1.549-1.821-3.078-3.659-4.587-5.513-1.508-1.855-2.997-3.726-4.465-5.612-1.468-1.887-2.915-3.79-4.341-5.708-1.426-1.919-2.832-3.853-4.216-5.802-1.384-1.949-2.747-3.913-4.088-5.892-1.341-1.979-2.661-3.972-3.959-5.98-1.297-2.008-2.573-4.029-3.827-6.065-1.253-2.036-2.484-4.085-3.693-6.147-1.208-2.063-2.395-4.138-3.558-6.227-1.163-2.089-2.304-4.189-3.421-6.303s-2.212-4.239-3.283-6.376c-1.071-2.138-2.119-4.286-3.143-6.446-1.023-2.161-2.024-4.332-3.001-6.514-.976-2.182-1.929-4.375-2.858-6.578-.929-2.202-1.833-4.415-2.713-6.637-.881-2.223-1.737-4.455-2.568-6.696-.832-2.242-1.639-4.492-2.421-6.751-.783-2.259-1.54-4.526-2.273-6.801-.733-2.276-1.441-4.559-2.124-6.85-.683-2.292-1.341-4.59-1.974-6.895-.633-2.306-1.24-4.618-1.822-6.936-.583-2.319-1.14-4.644-1.671-6.975-20.177-87.809-3.752-175.579 43.748-251.64 6.572-10.524 14.097-20.724 22.036-30.25 4.8-5.76 11.104-11.763 14.979-18.102.087-.142.17-.287.253-.43 2.081-32.208-.739-64.792.355-97.071.076-1.739.171-3.476.284-5.213.115-1.737.247-3.472.399-5.205.151-1.734.321-3.467.51-5.197.189-1.729.397-3.457.623-5.183.227-1.725.472-3.448.736-5.169.265-1.72.547-3.437.849-5.151.301-1.714.621-3.425.959-5.131.338-1.708.695-3.411 1.07-5.11.375-1.7.769-3.395 1.181-5.086.413-1.69.843-3.376 1.293-5.058.448-1.681.915-3.358 1.4-5.03.486-1.671.989-3.337 1.51-4.997.522-1.66 1.061-3.315 1.618-4.964.558-1.648 1.133-3.291 1.726-4.927.593-1.636 1.204-3.265 1.832-4.888.628-1.623 1.274-3.239 1.937-4.848.664-1.61 1.345-3.211 2.044-4.805.697-1.594 1.413-3.18 2.146-4.759.732-1.579 1.482-3.149 2.249-4.712.767-1.562 1.551-3.115 2.351-4.661.801-1.545 1.618-3.082 2.451-4.609.835-1.527 1.685-3.046 2.552-4.555s1.75-3.009 2.65-4.499c.899-1.489 1.814-2.969 2.746-4.439.932-1.47 1.879-2.93 2.843-4.38.962-1.449 1.941-2.888 2.936-4.316.994-1.428 2.004-2.845 3.029-4.251 1.026-1.407 2.067-2.802 3.122-4.186 1.055-1.384 2.126-2.755 3.211-4.115 1.086-1.361 2.186-2.71 3.301-4.046 1.114-1.337 2.243-2.661 3.387-3.973 1.143-1.312 2.3-2.612 3.472-3.898 26.483-29.22 55.284-49.372 92.229-63.751 9.23-3.592 18.546-7.004 28.185-9.339 16.765-4.063 33.473-5.906 50.657-6.749Zm-25.239 389.491 2.312.633c25.195 6.579 52.17 3.374 76.87-3.573 6.272-1.764 13.077-3.683 18.975-6.44 3.679-1.719 6.454-3.447 9.972-5.505 4.747-2.776 7.313-4.841 11.47-6.708.159-.072 2.144.704 2.305.635 9.351 3.939 17.629 9.149 25.996 14.822 33.219 22.522 60.41 54.169 75.667 91.501 21.953 53.715 21.538 109.1-.967 162.667-3.978 9.47-9.041 17.935-14.505 26.577-23.739 37.552-56.523 64.783-97.572 81.501-1.296.521-2.596 1.03-3.902 1.525-1.306.495-2.617.976-3.932 1.444-1.316.469-2.637.924-3.962 1.365-1.325.441-2.655.869-3.989 1.282-1.333.414-2.671.815-4.014 1.201-1.342.387-2.688.76-4.037 1.119-1.35.359-2.703.704-4.059 1.035-1.357.332-2.717.649-4.081.953-1.363.303-2.73.592-4.099.868-1.369.275-2.741.537-4.115.785-1.375.247-2.751.481-4.13.7-1.38.219-2.761.424-4.145.616-1.383.191-2.769.367-4.155.53-1.388.163-2.776.311-4.166.446-1.39.134-2.782.254-4.175.36-1.393.106-2.786.197-4.18.275-1.395.077-2.79.14-4.186.188-1.395.049-2.792.084-4.188.104-1.397.02-2.793.026-4.19.017-1.397-.008-2.793-.031-4.189-.068-1.396-.037-2.792-.088-4.187-.154-1.395-.065-2.789-.145-4.183-.239-1.393-.095-2.786-.203-4.177-.326-1.391-.122-2.781-.259-4.169-.41-1.389-.151-2.775-.316-4.16-.495-1.386-.18-2.769-.374-4.15-.582-1.381-.207-2.76-.429-4.137-.665-1.376-.236-2.75-.485-4.121-.75-1.372-.264-2.74-.542-4.106-.833-1.366-.292-2.728-.599-4.088-.919-1.359-.32-2.715-.653-4.068-1.001-1.353-.348-2.702-.709-4.047-1.085-8.243-2.226-16.238-4.549-24.123-7.879-19.111-8.071-39.311-19.688-54.48-34.059l.02.114c-28.026-21.315-50.321-56.608-61.393-89.717-.523-1.604-1.026-3.214-1.509-4.83-.485-1.615-.949-3.236-1.394-4.863-.445-1.627-.87-3.259-1.275-4.896-.406-1.637-.791-3.279-1.157-4.925-.365-1.647-.711-3.297-1.037-4.952-.326-1.655-.632-3.313-.917-4.975-.286-1.663-.552-3.329-.798-4.997-.246-1.669-.471-3.34-.677-5.015-.205-1.673-.39-3.35-.555-5.028-.165-1.679-.309-3.359-.433-5.041-.125-1.682-.229-3.365-.313-5.049-.083-1.685-.147-3.371-.19-5.057-.042-1.686-.065-3.372-.068-5.059-.002-1.686.017-3.373.055-5.059s.097-3.371.176-5.056c.079-1.685.179-3.368.298-5.05.12-1.683.26-3.364.421-5.043.16-1.679.34-3.355.541-5.03.201-1.674.422-3.346.662-5.016.242-1.669.503-3.335.784-4.998.282-1.663.583-3.323.904-4.978.322-1.656.664-3.307 1.025-4.955.361-1.647.742-3.29 1.143-4.929.4-1.638.821-3.271 1.262-4.899.44-1.628.9-3.251 1.379-4.867.48-1.617.979-3.229 1.497-4.833.519-1.605 1.056-3.204 1.613-4.796.557-1.592 1.133-3.177 1.728-4.755.595-1.578 1.21-3.149 1.843-4.712.633-1.564 1.285-3.119 1.956-4.666.671-1.548 1.36-3.087 2.067-4.618.708-1.531 1.434-3.053 2.179-4.566 1.053-2.098 2.141-4.177 3.265-6.239 1.124-2.06 2.283-4.101 3.476-6.122 1.194-2.021 2.422-4.022 3.684-6.001 1.261-1.979 2.557-3.936 3.886-5.871 1.328-1.935 2.69-3.847 4.084-5.735 1.394-1.888 2.82-3.752 4.278-5.592 1.457-1.84 2.946-3.654 4.466-5.443 1.52-1.789 3.07-3.551 4.65-5.287 1.58-1.736 3.189-3.444 4.827-5.125 1.638-1.682 3.305-3.334 5-4.958 1.695-1.624 3.417-3.218 5.166-4.783 1.749-1.566 3.525-3.101 5.326-4.605 1.802-1.505 3.629-2.978 5.481-4.42 1.852-1.442 3.728-2.852 5.629-4.23 1.9-1.379 3.823-2.724 5.769-4.036 1.946-1.312 3.914-2.591 5.904-3.836 7.679-4.857 15.303-10.777 24.002-13.652 18.805 10.477 30.043 16.138 51.205 21.42l-.368.173Zm48.38-205.335c2.452-4.212 3.948-8.935 2.757-13.819-1.048-4.299-3.692-8.724-7.597-10.972-8.259-4.753-21.072-2.007-24.562-13.608-1.271-4.225-1.053-9.414 1.153-13.298 1.904-3.349 5.285-5.616 8.973-6.567 4.335-1.119 9.207-.763 13.623-.451 18.619 1.314 35.733 7.033 51.591 16.849.828.512 1.65 1.035 2.465 1.567.816.533 1.625 1.076 2.427 1.628.803.553 1.598 1.115 2.386 1.687.788.572 1.57 1.154 2.344 1.745.774.591 1.54 1.192 2.299 1.803.759.61 1.511 1.23 2.255 1.859s1.48 1.267 2.207 1.913c.728.648 1.448 1.304 2.16 1.968.712.665 1.415 1.339 2.111 2.021.695.682 1.382 1.373 2.06 2.072.679.7 1.348 1.407 2.008 2.122.661.717 1.313 1.44 1.956 2.172.643.732 1.276 1.471 1.901 2.219.625.747 1.241 1.503 1.846 2.265.606.763 1.202 1.533 1.789 2.31.587.777 1.165 1.562 1.733 2.353.567.792 1.125 1.59 1.673 2.396.548.805 1.086 1.617 1.613 2.436.528.818 1.046 1.643 1.553 2.475.507.832 1.005 1.669 1.492 2.513.486.844.962 1.693 1.428 2.548.466.856.921 1.717 1.366 2.584.444.867.878 1.739 1.301 2.617.423.877.835 1.759 1.236 2.646.402.888.792 1.78 1.171 2.678.379.897.747 1.799 1.104 2.705.357.906.702 1.817 1.037 2.732.335.915.658 1.834.969 2.756.312.924.612 1.85.901 2.78.289.93.566 1.864.832 2.801s.521 1.877.763 2.821c.242.943.473 1.889.693 2.838 7.07 30.718.515 62.179-16.281 88.53-9.589 15.045-25.22 29.76-41.022 38.239-10.394 5.576-22.016 9.407-33.504 11.901-27.779 6.03-59.37.933-83.441-14.59-27.298-17.605-46.342-42.204-53.183-74.456-6.163-29.058-1.243-60.886 15.048-85.914 8.587-13.194 19.015-24.804 31.818-34.042 4.718-3.404 10.117-6.161 14.603-9.821 2.076 18.869 5.355 32.741 21.029 45.195 7.687 6.107 14.319 8.463 23.912 9.933 3.006.46 6.056.963 9.105.616 1.653-.187 3.242-.827 4.789-1.406 3.2-1.756 5.65-3.691 8.11-6.349Zm9.29-147.05 4.335.512c1.659.216 3.315.453 4.968.711 1.654.257 3.304.535 4.95.833 1.647.299 3.289.618 4.928.957 1.638.338 3.272.697 4.902 1.077 1.63.379 3.254.779 4.874 1.198 1.62.42 3.235.859 4.844 1.319 1.609.459 3.212.938 4.809 1.437 1.597.5 3.188 1.018 4.772 1.557 1.584.538 3.162 1.096 4.733 1.674 1.57.577 3.133 1.174 4.689 1.791 1.555.616 3.103 1.251 4.643 1.905 1.54.654 3.072 1.327 4.595 2.02 1.523.692 3.038 1.403 4.544 2.133 1.506.73 3.002 1.478 4.49 2.244 1.487.767 2.965 1.552 4.433 2.355 1.468.804 2.925 1.625 4.372 2.464 1.448.84 2.885 1.697 4.311 2.572 1.427.874 2.842 1.767 4.246 2.677 1.405.91 2.798 1.837 4.179 2.781 1.381.944 2.751 1.906 4.109 2.884 1.357.978 2.702 1.973 4.035 2.984 1.333 1.011 2.653 2.039 3.961 3.084 1.307 1.044 2.602 2.104 3.884 3.179 1.281 1.077 2.549 2.169 3.803 3.276 1.255 1.108 2.495 2.231 3.721 3.369 1.227 1.138 2.439 2.291 3.638 3.459 1.198 1.168 2.381 2.351 3.55 3.548 1.169 1.198 2.323 2.409 3.461 3.635 1.139 1.226 2.263 2.466 3.371 3.719 1.108 1.255 2.201 2.522 3.278 3.802 1.077 1.281 2.138 2.575 3.182 3.882 1.525 1.896 3.015 3.818 4.47 5.766 1.456 1.948 2.876 3.922 4.261 5.921 1.385 2 2.735 4.023 4.048 6.07 1.313 2.047 2.589 4.117 3.828 6.209 1.24 2.093 2.442 4.207 3.606 6.343 1.164 2.135 2.29 4.29 3.377 6.466 1.087 2.176 2.135 4.371 3.144 6.583 1.01 2.213 1.979 4.443 2.909 6.69.93 2.248 1.819 4.512 2.667 6.791.85 2.279 1.658 4.572 2.425 6.88.768 2.308 1.494 4.629 2.178 6.963.685 2.334 1.327 4.679 1.928 7.036.601 2.357 1.16 4.724 1.677 7.1.517 2.377.991 4.762 1.423 7.155.432 2.394.82 4.794 1.166 7.202.346 2.407.65 4.82.91 7.238 1.584 15.118 1.503 30.432 1.482 45.612-.013 10.267.442 20.688.012 30.938-10.955-8.675-22.915-16.955-34.806-24.303-6.474-4.001-13.614-7.139-19.632-11.799 2.779-44.5-7.89-84.369-37.812-118.304-.81-.934-1.632-1.857-2.466-2.77-.834-.913-1.678-1.815-2.535-2.707-.855-.892-1.722-1.773-2.6-2.644-.878-.871-1.766-1.73-2.665-2.578-.9-.848-1.809-1.686-2.729-2.511-.92-.826-1.85-1.64-2.791-2.443-.94-.802-1.89-1.593-2.85-2.372-.96-.779-1.929-1.546-2.908-2.301-.979-.755-1.968-1.498-2.965-2.228-.997-.731-2.003-1.449-3.019-2.154-1.015-.705-2.039-1.398-3.071-2.078-1.033-.679-2.074-1.346-3.123-2-1.049-.654-2.106-1.296-3.171-1.923-1.065-.628-2.137-1.242-3.218-1.843-1.08-.601-2.167-1.189-3.262-1.763-1.095-.574-2.197-1.135-3.306-1.681-1.109-.547-2.225-1.08-3.346-1.598-1.122-.519-2.251-1.024-3.385-1.515-1.135-.491-2.275-.968-3.422-1.43-1.146-.463-2.298-.911-3.456-1.345-1.157-.434-2.32-.853-3.488-1.258-1.168-.405-2.341-.796-3.519-1.172-1.177-.376-2.359-.737-3.546-1.083-1.187-.347-2.378-.678-3.573-.995-1.195-.317-2.393-.619-3.596-.906-1.202-.287-2.408-.559-3.617-.816-1.209-.257-2.421-.499-3.637-.726-1.215-.227-2.433-.439-3.654-.635-1.22-.197-2.443-.378-3.668-.545-1.225-.166-2.452-.318-3.68-.453-1.229-.136-2.46-.257-3.691-.362-1.232-.105-2.465-.195-3.699-.27-1.26-.079-2.521-.143-3.782-.191-1.262-.049-2.524-.082-3.786-.099-1.263-.017-2.526-.018-3.788-.004-1.262.015-2.525.045-3.787.09-1.261.045-2.522.107-3.782.184-1.261.077-2.52.169-3.778.278-1.258.108-2.515.232-3.77.371-1.254.139-2.507.294-3.758.465-1.251.17-2.5.356-3.746.558-1.247.201-2.491.418-3.732.651-1.241.232-2.478.48-3.713.744-1.235.263-2.467.541-3.695.834-1.228.294-2.452.603-3.672.927-1.22.324-2.436.664-3.648 1.018-1.212.354-2.42.724-3.622 1.108-1.203.385-2.401.784-3.593 1.197-1.193.414-2.38.843-3.563 1.287-1.182.443-2.358.901-3.529 1.375-1.17.472-2.335.959-3.494 1.46-1.159.502-2.311 1.018-3.457 1.549-1.146.53-2.285 1.075-3.417 1.633-1.133.558-2.258 1.131-3.376 1.718-1.118.586-2.229 1.186-3.332 1.8-1.103.615-2.199 1.242-3.286 1.883-1.088.641-2.168 1.296-3.239 1.964-1.071.668-2.134 1.349-3.188 2.044-1.055.695-2.101 1.402-3.138 2.122-1.037.721-2.065 1.454-3.083 2.2-1.019.746-2.028 1.504-3.028 2.275-1 .771-1.99 1.555-2.97 2.351-.98.795-1.951 1.603-2.911 2.423-.961.819-1.911 1.65-2.85 2.494-28.815 25.709-48.591 63.879-50.588 102.74-.208 4.038.62 27.398-.677 28.675-3.74 3.684-10.561 6.37-15.128 9.039-5.421 3.195-10.711 6.592-15.859 10.206l-.85.573c-7.067 5.293-13.353 10.249-20.204 15.829-.34-12.156-.155-24.36-.162-36.524-.01-16.89-.379-33.584 2.358-50.327.238-1.466.493-2.93.763-4.392.27-1.462.556-2.92.857-4.375.302-1.456.619-2.908.951-4.356.333-1.449.681-2.893 1.044-4.334.364-1.441.743-2.878 1.138-4.311.395-1.433.804-2.862 1.229-4.286.425-1.424.866-2.843 1.321-4.258.456-1.414.927-2.824 1.412-4.228.487-1.405.988-2.804 1.503-4.198.516-1.394 1.047-2.782 1.592-4.164.546-1.383 1.107-2.759 1.682-4.13.575-1.369 1.165-2.733 1.77-4.092.604-1.357 1.223-2.708 1.857-4.053.633-1.344 1.281-2.681 1.943-4.012.663-1.33 1.339-2.653 2.03-3.969.69-1.316 1.394-2.625 2.113-3.926.72-1.301 1.452-2.594 2.198-3.879.747-1.285 1.507-2.562 2.281-3.831.774-1.268 1.561-2.529 2.362-3.78.801-1.253 1.615-2.496 2.443-3.73.828-1.234 1.668-2.46 2.522-3.676.854-1.217 1.721-2.424 2.601-3.622.88-1.197 1.773-2.385 2.678-3.564.905-1.179 1.823-2.347 2.753-3.506.931-1.159 1.873-2.308 2.828-3.447.956-1.138 1.923-2.267 2.902-3.385.979-1.118 1.97-2.225 2.974-3.321 1.003-1.097 2.017-2.183 3.044-3.258 1.026-1.074 2.064-2.138 3.113-3.191s2.11-2.094 3.182-3.123c1.072-1.03 2.154-2.048 3.247-3.055 1.094-1.006 2.198-2.001 3.312-2.984 5.609-4.937 11.761-9.346 17.828-13.697 38.13-27.35 94.745-43.075 141.284-35.353l-.349.076Z" fill="#07274c"/>
  <path d="M672.797 374.011c22.554 13.597 43.516 28.042 62.51 46.422 17.173 16.117 31.352 33.322 44.619 52.824 43.45 63.865 59.029 148.932 44.52 224.463-.48 2.429-.99 4.851-1.529 7.267-.539 2.416-1.107 4.825-1.705 7.227-.598 2.402-1.225 4.797-1.88 7.184-.656 2.387-1.341 4.765-2.055 7.136-.714 2.37-1.457 4.731-2.228 7.084-.771 2.352-1.571 4.694-2.399 7.027-.828 2.333-1.685 4.655-2.57 6.967-.885 2.312-1.797 4.613-2.738 6.903-.941 2.29-1.909 4.568-2.905 6.834-.996 2.266-2.02 4.52-3.071 6.761-1.051 2.241-2.129 4.469-3.234 6.684s-2.237 4.417-3.396 6.604c-1.159 2.188-2.344 4.361-3.556 6.52-1.211 2.159-2.449 4.302-3.713 6.43-1.263 2.129-2.553 4.242-3.868 6.339-1.315 2.097-2.656 4.178-4.022 6.243-1.366 2.064-2.757 4.112-4.172 6.143-1.416 2.031-2.856 4.044-4.32 6.039-1.465 1.996-2.953 3.974-4.466 5.933-1.513 1.959-3.05 3.9-4.609 5.822-1.56 1.923-3.143 3.826-4.75 5.709-1.606 1.883-3.235 3.747-4.886 5.591-1.652 1.844-3.326 3.668-5.022 5.471-1.696 1.803-3.414 3.586-5.153 5.347-1.739 1.761-3.5 3.501-5.281 5.22-1.782 1.719-3.584 3.415-5.407 5.09-1.823 1.675-3.666 3.327-5.529 4.957s-3.746 3.237-5.648 4.821c-1.903 1.584-3.824 3.145-5.764 4.682-1.94 1.538-3.899 3.052-5.876 4.541-1.977 1.49-3.971 2.955-5.984 4.396-2.013 1.441-4.043 2.858-6.09 4.25-2.035 1.381-4.086 2.736-6.154 4.066-2.068 1.331-4.152 2.636-6.252 3.916-2.099 1.279-4.214 2.533-6.345 3.762-2.13 1.228-4.275 2.43-6.434 3.606-2.159 1.177-4.333 2.326-6.52 3.449-2.188 1.123-4.389 2.22-6.603 3.29-2.214 1.07-4.441 2.113-6.68 3.128-2.239 1.015-4.491 2.004-6.754 2.965a301.514 301.514 0 0 1-6.825 2.799c-2.286.905-4.583 1.783-6.89 2.633-2.308.849-4.626 1.671-6.953 2.464-2.327.793-4.664 1.558-7.01 2.294-2.347.737-4.702 1.444-7.065 2.123-2.363.679-4.734 1.33-7.113 1.951-2.379.621-4.766 1.214-7.159 1.777-2.394.563-4.794 1.098-7.201 1.603-2.406.505-4.818.98-7.237 1.427-2.418.446-4.841.863-7.269 1.25-2.429.387-4.861.745-7.298 1.073-2.437.328-4.878.627-7.322.896s-4.891.508-7.341.717c-2.45.209-4.902.389-7.357.538-2.455.149-4.911.269-7.368.359-2.457.09-4.915.15-7.374.18-2.459.03-4.917.03-7.376.001-2.459-.03-4.917-.09-7.374-.179s-4.913-.209-7.368-.358-4.907-.329-7.357-.538c-2.45-.209-4.897-.447-7.341-.716-2.445-.269-4.885-.567-7.322-.894-2.437-.328-4.87-.686-7.298-1.073-2.429-.387-4.852-.803-7.27-1.249-2.479-.462-4.953-.954-7.42-1.477-2.467-.523-4.927-1.076-7.381-1.659-2.453-.583-4.899-1.197-7.337-1.84-2.439-.644-4.869-1.318-7.291-2.021-2.421-.703-4.834-1.437-7.238-2.2-2.403-.763-4.797-1.556-7.181-2.378-2.385-.822-4.758-1.673-7.121-2.554-2.363-.881-4.715-1.79-7.056-2.729-2.341-.939-4.669-1.906-6.986-2.902-2.317-.996-4.622-2.021-6.913-3.074-2.291-1.053-4.57-2.134-6.835-3.243-2.265-1.109-4.516-2.246-6.753-3.41-2.237-1.165-4.459-2.357-6.666-3.576-2.207-1.22-4.4-2.467-6.577-3.74-2.177-1.273-4.337-2.573-6.482-3.9-2.145-1.327-4.273-2.68-6.384-4.059-2.111-1.379-4.205-2.784-6.282-4.215s-4.135-2.887-6.176-4.369c-2.041-1.481-4.063-2.988-6.067-4.519-2.003-1.532-3.988-3.088-5.953-4.668-1.965-1.581-3.911-3.185-5.837-4.814-1.925-1.628-3.83-3.28-5.715-4.955-1.885-1.675-3.75-3.374-5.593-5.095-1.843-1.721-3.664-3.465-5.464-5.232-1.8-1.766-3.578-3.554-5.334-5.364-1.756-1.811-3.49-3.642-5.201-5.495-1.711-1.853-3.398-3.726-5.063-5.621-1.665-1.895-3.306-3.809-4.923-5.744-1.617-1.935-3.211-3.889-4.78-5.864-1.569-1.974-3.113-3.967-4.634-5.98-1.52-2.012-3.015-4.043-4.485-6.092-1.47-2.049-2.914-4.116-4.333-6.201-1.099-1.641-2.181-3.293-3.246-4.956-1.066-1.663-2.116-3.337-3.149-5.02-1.033-1.683-2.049-3.377-3.049-5.08-.999-1.703-1.982-3.416-2.949-5.139-.966-1.723-1.915-3.455-2.847-5.196-.932-1.741-1.847-3.492-2.744-5.251-.898-1.759-1.778-3.527-2.641-5.304-.863-1.777-1.708-3.562-2.536-5.355-.827-1.793-1.637-3.594-2.43-5.403-.792-1.809-1.566-3.626-2.323-5.451-.757-1.824-1.495-3.656-2.216-5.495-.721-1.839-1.423-3.684-2.108-5.537-.685-1.853-1.351-3.712-1.998-5.578-.648-1.866-1.277-3.738-1.888-5.616-.611-1.878-1.204-3.762-1.778-5.652-.574-1.89-1.129-3.785-1.666-5.686-.537-1.901-1.055-3.806-1.554-5.717-.499-1.911-.98-3.827-1.441-5.747-.462-1.921-.905-3.845-1.329-5.774-.423-1.929-.828-3.862-1.214-5.799-.386-1.937-.753-3.878-1.1-5.822-.348-1.945-.677-3.892-.986-5.843-.309-1.951-.599-3.904-.87-5.861-.271-1.956-.523-3.915-.755-5.876-.233-1.961-.446-3.925-.64-5.89-.194-1.966-.368-3.933-.523-5.902-.155-1.969-.291-3.94-.408-5.911-.117-1.972-.214-3.945-.291-5.918-.078-1.973-.136-3.947-.175-5.922-.039-1.975-.058-3.95-.058-5.925-.001-1.975.019-3.95.058-5.925.039-1.975.097-3.949.174-5.922.507-15.77 1.858-31.265 4.984-46.749 15.451-76.521 53.821-138.287 115.952-185.746 11.306-8.636 23.581-15.043 35.359-22.867 1.333.387 3.405 6.174 4.107 7.665 7.031 14.921 14.152 25.868 24.896 38.542-33.555 20.04-61.276 42.088-83.803 74.342-38.268 54.789-55.132 121.537-43.294 187.785 12.048 67.421 49.914 124.603 106.13 163.57 51.732 35.858 122.142 49.085 183.769 37.869 69.11-12.579 122.689-50.345 162.183-107.641 9.034-13.107 16.045-27.027 22.111-41.718 1.162-2.77 2.273-5.561 3.332-8.372 1.06-2.811 2.068-5.64 3.023-8.488.955-2.848 1.858-5.713 2.708-8.594.85-2.881 1.647-5.776 2.391-8.687.743-2.911 1.433-5.834 2.07-8.769.636-2.936 1.218-5.883 1.746-8.84.527-2.957 1.001-5.923 1.42-8.898.419-2.975.783-5.956 1.092-8.944.309-2.988.563-5.981.762-8.978.199-2.997.343-5.997.432-9 .089-3.003.122-6.006.101-9.01-.022-3.004-.099-6.006-.231-9.007-.132-3.001-.319-5.999-.561-8.993-.243-2.994-.54-5.983-.892-8.966-.352-2.983-.759-5.959-1.22-8.928-.461-2.968-.977-5.927-1.548-8.876-11.432-61.706-46.718-114.86-96.028-152.927-9.66-7.457-20.336-13.085-30.347-19.974 13.642-15.224 19.736-29.031 28.904-46.529Z" fill="url(#a)" fill-rule="nonzero" transform="scale(.97384)"/>
  <defs>
    <linearGradient id="a" x1="0" y1="0" x2="1" y2="0" gradientUnits="userSpaceOnUse" gradientTransform="scale(605.543) rotate(11.053 -4.8381 2.428694)">
      <stop offset="0" stop-color="#f27560"/>
      <stop offset="1" stop-color="#f8c06e"/>
    </linearGradient>
  </defs>
</svg>
